<?xml version="1.0" encoding="UTF-8"?>
<svg xmlns="http://www.w3.org/2000/svg" xmlns:xlink="http://www.w3.org/1999/xlink" width="400pt" height="400pt" viewBox="0 0 400 400" version="1.1">
<defs>
<marker id="arrow" markerWidth="5" markerHeight="5" refX="0" refY="1.5" orient="auto">
    <polygon points="0,0 4.5,1.5 0,3" fill="#4063D8" />
</marker>
</defs>

<path d="M350,250 L280,250 L50,250" fill="none" stroke="#CB3C33" stroke-width="12" marker-mid="url(#arrow)"/>
<path d="M250,50 L150,150 L50,250" fill="none" stroke="#389826" stroke-width="12" marker-mid="url(#arrow)"/>
<path d="M250,50 L300,150 L350,250" fill="none" stroke="#9558B2" stroke-width="12" marker-mid="url(#arrow)"/>
<path d="M50,250 L94,290 L160,350" fill="none" stroke="#9558B2" stroke-width="12" marker-mid="url(#arrow)"/>
<path d="M160,350 L220,320 L350,250" fill="none" stroke="#389826" stroke-width="12" marker-mid="url(#arrow)"/>
<path d="M250,50 L205,200 L160,350" fill="none" stroke="#CB3C33" stroke-width="12" marker-mid="url(#arrow)"/>

<circle cx="250" cy="53" r="10" fill="#CB3C33"/>
<text x="250" y="40" font-size="60" fill="#CB3C33" text-anchor="middle">+</text>
<circle cx="53" cy="250" r="10" fill="#4063D8"/>
<text x="30" y="265" font-size="60" fill="#4063D8" text-anchor="middle">-</text>
<circle cx="348" cy="249" r="10" fill="#9558B2"/>
<text x="370" y="265" font-size="60" fill="#9558B2" text-anchor="middle">-</text>
<circle cx="160" cy="349" r="10" fill="#389826"/>
<text x="160" y="390" font-size="60" fill="#389826" text-anchor="middle">+</text>
</svg>
